<svg xmlns="http://www.w3.org/2000/svg" xmlns:xlink="http://www.w3.org/1999/xlink" width="80" height="50" viewBox="0 0 80 50"><defs><style>.a{fill:none;}.b{clip-path:url(#a);}.c{fill:#f9f9f9;fill-rule:evenodd;}</style><clipPath id="a"><rect class="a" width="80" height="50" transform="translate(891 156)"/></clipPath></defs><g class="b" transform="translate(-891 -156)"><path class="c" d="M21.875,50H7.292a5.21,5.21,0,0,1-5.208-5.208V20.542A4.943,4.943,0,0,1,.6,14.146Q3.93,8.215,7.4,2.367A4.929,4.929,0,0,1,11.665,0a5.275,5.275,0,0,1,3.01,1c1.379.8,18.75,11.15,26.067,15.5.181.108,7.012,4.142,7.185,4.26a4.906,4.906,0,0,1,1.458,6.383q-3.325,5.934-6.8,11.781a4.918,4.918,0,0,1-5.2,2.267c-.817.487-12.137,7.812-13.025,8.267A4.985,4.985,0,0,1,21.875,50M6.25,27.577V44.792a1.041,1.041,0,0,0,1.042,1.042H16.85q-5.375-9.081-10.6-18.256M9.6,25c.11.192,11.835,20.41,11.929,20.54a.751.751,0,0,0,.948.2c.342-.192,10.585-6.773,10.585-6.773C31.727,38.183,16.092,28.863,9.6,25M10.969,4.521c-1.9,3.033-6.665,11.51-6.74,11.688a.785.785,0,0,0,.31.967c.419.25,33.381,19.89,33.7,19.94a.783.783,0,0,0,.785-.362c1.963-3.3,6.679-11.562,6.733-11.669a.79.79,0,0,0-.312-.969c-.419-.25-33.3-19.79-33.521-19.887a.782.782,0,0,0-.958.294m3.244,5.615A4.167,4.167,0,1,1,10.046,14.3a4.17,4.17,0,0,1,4.167-4.167" transform="translate(906 156)"/></g></svg>