<svg xmlns="http://www.w3.org/2000/svg" xmlns:xlink="http://www.w3.org/1999/xlink" width="45" height="45" viewBox="0 0 45 45"><defs><style>.a{fill:#222;}.b{clip-path:url(#a);}.c{fill:none;stroke:#222;stroke-linecap:round;stroke-linejoin:round;stroke-width:3px;}</style><clipPath id="a"><rect class="a" width="45" height="45" transform="translate(256 290)"/></clipPath></defs><g class="b" transform="translate(-256 -290)"><path class="c" d="M10292.054,3239H10283v15h34v-15h-8.867" transform="translate(-10022 -2926)"/><path class="a" d="M1.932,15.757.767,14.592a1.254,1.254,0,0,1,0-1.778L10.96,2.616a1.254,1.254,0,0,1,1.778,0L22.93,12.809a1.254,1.254,0,0,1,0,1.778l-1.165,1.165a1.26,1.26,0,0,1-1.8-.021L13.95,9.415V24.491a1.256,1.256,0,0,1-1.259,1.259H11.012a1.256,1.256,0,0,1-1.259-1.259V9.415L3.731,15.736a1.251,1.251,0,0,1-1.8.021Z" transform="translate(266.603 292.753)"/></g></svg>