<svg xmlns="http://www.w3.org/2000/svg" xmlns:xlink="http://www.w3.org/1999/xlink" width="45" height="45" viewBox="0 0 45 45"><defs><style>.a{fill:#222;}.b{clip-path:url(#a);}</style><clipPath id="a"><rect class="a" width="45" height="45" transform="translate(355 260)"/></clipPath></defs><g class="b" transform="translate(-355 -260)"><path class="a" d="M8,29.333V8H29.333V18.057c0,5.476-8,3.276-8,3.276s2.024,8-3.517,8H8ZM32,19.181V5.333H5.333V32H18.919C23.136,32,32,22.369,32,19.181ZM18.667,21.333H12V20h6.667ZM25.333,16H12v1.333H25.333Zm0-4H12v1.333H25.333Zm4-8H4V29.333H2.667V2.667H29.333ZM26.667,1.333H1.333V26.667H0V0H26.667Z" transform="translate(367.334 265.111)"/><path class="a" d="M4.177,27H6.683L10,30.333,6.683,33.667H4.177l3.317-3.333ZM0,33.667H2.506l3.317-3.333L2.506,27H0l3.317,3.333Z" transform="translate(356 250.354)"/></g></svg>