<svg xmlns="http://www.w3.org/2000/svg" xmlns:xlink="http://www.w3.org/1999/xlink" width="45" height="45" viewBox="0 0 45 45"><defs><style>.a{fill:#222;}.b{clip-path:url(#a);}</style><clipPath id="a"><rect class="a" width="45" height="45" transform="translate(251 167)"/></clipPath></defs><g class="b" transform="translate(-251 -167)"><path class="a" d="M20.792,29.042h6.833V30.75H20.792Zm0-1.708h6.833V25.625H20.792ZM36.167,3.417V41H2V3.417H7.125c2.1,0,3.726-1.852,5.125-3.417H25.917c1.4,1.565,3.025,3.417,5.125,3.417ZM17.375,5.125a1.708,1.708,0,1,0,1.708-1.708A1.709,1.709,0,0,0,17.375,5.125ZM32.75,6.833H25.917L22.5,10.25H15.843L12.25,6.833H5.417v30.75H32.75ZM20.792,22.208h6.833V20.5H20.792Zm0-3.417h6.833V17.083H20.792Zm-11.1.132.659-.606a12.654,12.654,0,0,1,2.12,1.273,18.381,18.381,0,0,1,4.695-4.023l.214.492a20.905,20.905,0,0,0-4.589,6.15A33.038,33.038,0,0,0,9.688,18.923Zm.167,8.542.659-.606a12.654,12.654,0,0,1,2.12,1.273,18.381,18.381,0,0,1,4.695-4.023l.214.494a20.905,20.905,0,0,0-4.589,6.15,33.263,33.263,0,0,0-3.1-3.287Z" transform="translate(254.102 169.008)"/></g></svg>