<svg xmlns="http://www.w3.org/2000/svg" xmlns:xlink="http://www.w3.org/1999/xlink" width="45" height="45" viewBox="0 0 45 45"><defs><style>.a{fill:#222;}.b{clip-path:url(#a);}</style><clipPath id="a"><rect class="a" width="45" height="45" transform="translate(355 278)"/></clipPath></defs><g class="b" transform="translate(-355 -278)"><path class="a" d="M25.036,7.63a1.347,1.347,0,0,1,.044-1.911L30.573.391A1.374,1.374,0,0,1,31.527,0a1.323,1.323,0,0,1,.956.407L25.036,7.63ZM16,21.2a.568.568,0,0,0-.169.4.561.561,0,0,0,.952.4l.923-.9-.781-.806Zm7.8-10.374-3.157,3.061a13.045,13.045,0,0,0-3.363,5.464l1.395,1.439A13.035,13.035,0,0,0,24.238,17.6l3.157-3.062-3.6-3.71Zm9.209-9.434L24.874,9.283l4.094,4.229L37.1,5.627a2.945,2.945,0,0,0-4.1-4.232ZM14.25,20.583H7.917v1.583H14.25ZM28.5,18.446v3c0,6.5-9.5,3.89-9.5,3.89s2.4,9.5-4.177,9.5H3.167V3.167h20L26.427,0H0V38H16.133c5.008,0,15.534-11.436,15.534-15.222V15.357L28.5,18.446Z" transform="translate(359 282)"/></g></svg>