<svg xmlns="http://www.w3.org/2000/svg" width="60" height="60" viewBox="0 0 60 60"><defs><style>.a{fill:#f9f9f9;}.b{fill:#494949;}</style></defs><g transform="translate(-1320 -245)"><path class="a" d="M30,0A30,30,0,1,1,0,30,30,30,0,0,1,30,0Z" transform="translate(1320 245)"/><path class="b" d="M16.5,2.973c4.406,0,4.927.016,6.668.1a9.133,9.133,0,0,1,3.064.568,5.113,5.113,0,0,1,1.9,1.235,5.112,5.112,0,0,1,1.235,1.9,9.132,9.132,0,0,1,.568,3.064c.08,1.74.1,2.262.1,6.668s-.016,4.927-.1,6.667a9.132,9.132,0,0,1-.568,3.065,5.463,5.463,0,0,1-3.132,3.132,9.129,9.129,0,0,1-3.064.568c-1.74.08-2.262.1-6.668.1s-4.927-.017-6.667-.1a9.127,9.127,0,0,1-3.064-.568,5.11,5.11,0,0,1-1.9-1.234,5.112,5.112,0,0,1-1.234-1.9,9.131,9.131,0,0,1-.569-3.065c-.079-1.74-.1-2.262-.1-6.667s.017-4.927.1-6.667a9.131,9.131,0,0,1,.569-3.065,5.112,5.112,0,0,1,1.234-1.9,5.113,5.113,0,0,1,1.9-1.234,9.132,9.132,0,0,1,3.063-.569c1.74-.079,2.262-.1,6.668-.1M16.5,0c-4.48,0-5.043.019-6.8.1a12.111,12.111,0,0,0-4,.767,8.088,8.088,0,0,0-2.924,1.9,8.088,8.088,0,0,0-1.9,2.923A12.111,12.111,0,0,0,.1,9.7C.019,11.457,0,12.02,0,16.5s.019,5.043.1,6.8a12.111,12.111,0,0,0,.767,4.005,8.088,8.088,0,0,0,1.9,2.922,8.086,8.086,0,0,0,2.922,1.9A12.11,12.11,0,0,0,9.7,32.9c1.761.081,2.324.1,6.8.1s5.043-.02,6.8-.1a12.11,12.11,0,0,0,4-.767,8.437,8.437,0,0,0,4.826-4.825A12.112,12.112,0,0,0,32.9,23.3c.081-1.761.1-2.323.1-6.8s-.02-5.043-.1-6.8a12.112,12.112,0,0,0-.767-4,8.088,8.088,0,0,0-1.9-2.922,8.088,8.088,0,0,0-2.924-1.9A12.111,12.111,0,0,0,23.3.1C21.543.019,20.981,0,16.5,0Zm0,8.027A8.473,8.473,0,1,0,24.973,16.5,8.473,8.473,0,0,0,16.5,8.027ZM16.5,22A5.5,5.5,0,1,1,22,16.5,5.5,5.5,0,0,1,16.5,22ZM27.288,7.69a1.98,1.98,0,1,1-1.98-1.98,1.98,1.98,0,0,1,1.98,1.98Z" transform="translate(1334 259)"/></g></svg>