<svg xmlns="http://www.w3.org/2000/svg" xmlns:xlink="http://www.w3.org/1999/xlink" width="80" height="50" viewBox="0 0 80 50"><defs><style>.a{fill:none;}.b{clip-path:url(#a);}.c{fill:#f9f9f9;fill-rule:evenodd;}</style><clipPath id="a"><rect class="a" width="80" height="50" transform="translate(891 156)"/></clipPath></defs><g class="b" transform="translate(-891 -156)"><path class="c" d="M10.938,36.088,6.25,33.544l4.654-6.39L6.25,23.071l9.819-5.337a13.8,13.8,0,0,1,1.258,1.681L9.86,23.473l2.46,2.16,6.371-3.513a12.615,12.615,0,0,1,.587,2.035l-6.794,3.752,12.538,6.477L37.5,27.917l-6.567-3.635a13.078,13.078,0,0,1,.517-2.017l6.11,3.365,2.571-2.281L32.84,19.483a17.134,17.134,0,0,1,1.279-1.673l9.631,5.1L39.04,27.1l.023.012,4.688,6.419-4.687,2.55v6.431L25,50,10.938,42.508V36.087Zm15.1-.2v11.2l10.948-5.831V37.208l-7.294,3.969ZM13.019,37.217v4.046l10.933,5.825V35.894l-3.64,5.283-7.294-3.96ZM9.327,32.85,19.66,38.458l2.29-3.321L11.569,29.773,9.327,32.85Zm18.725,2.306,2.283,3.3,10.335-5.621-2.235-3.065L28.052,35.156Zm-2.483-6.073H24.483a1.127,1.127,0,0,1-.746-.265L22.3,27.871h5.46l-1.442.948A1.119,1.119,0,0,1,25.569,29.083Zm2.24-2.425H22.277a.605.605,0,1,1,0-1.21h5.531a.605.605,0,1,1,0,1.21Zm.6-2.423h-6.76c0-4.785-3.9-6.856-3.9-11.181,0-4.512,3.638-7,7.277-7s7.285,2.488,7.285,7C32.308,17.379,28.408,19.383,28.406,24.235Zm-1.877-2.077A15.176,15.176,0,0,1,28.65,17.25a8.094,8.094,0,0,0,1.577-4.2,4.915,4.915,0,0,0-5.2-4.919,4.912,4.912,0,0,0-5.2,4.919,8.25,8.25,0,0,0,1.59,4.24,15.338,15.338,0,0,1,2.108,4.865Zm-11.16-9H11.677V11.079h3.788a8.018,8.018,0,0,0-.123,1.4Zm23.006,0H34.706l.029-.673a7.823,7.823,0,0,0-.125-1.4h3.765Zm-20.8-6.273A8.665,8.665,0,0,0,16.36,8.569l-3-2.127,1.2-1.694,3.01,2.135Zm14.915-.01,2.994-2.125,1.2,1.694L33.71,8.556a8.814,8.814,0,0,0-1.219-1.683ZM21.45,4.331a10.218,10.218,0,0,0-1.873.9L17.969,1.952l1.869-.913Zm7.156-.008,1.61-3.283,1.867.912-1.6,3.271A10.033,10.033,0,0,0,28.606,4.323Zm-2.54-.565c-.337-.033-.681-.05-1.029-.05s-.706.019-1.052.052V0h2.081V3.758Z" transform="translate(906 156)"/></g></svg>