<svg xmlns="http://www.w3.org/2000/svg" xmlns:xlink="http://www.w3.org/1999/xlink" width="80" height="50" viewBox="0 0 80 50"><defs><style>.a{fill:none;}.b{clip-path:url(#a);}.c{fill:#f9f9f9;}</style><clipPath id="a"><rect class="a" width="80" height="50" transform="translate(891 156)"/></clipPath></defs><g class="b" transform="translate(-891 -156)"><path class="c" d="M30.554,17.362V25L33.6,20.385l-3.048-3.023Zm-6.442,8.681a14.781,14.781,0,0,0,3.663-3.015v2.852A16.6,16.6,0,0,1,24.756,28l-.644-1.958ZM17.331,30.3a42.509,42.509,0,0,1-4.831.26V28.535a40.08,40.08,0,0,0,4.483-.235Zm5.81-1.51-.075.031a20.457,20.457,0,0,1-3.979,1.194l-.348-2a18.409,18.409,0,0,0,3.769-1.158ZM45.833,0l-6.25,22.917-8.467-7.542L39.242,6.8,28.348,14.327,20.833,12.5ZM39.552,30.79C39.552,40.26,27.517,50,22.425,50H4.167V4.167H28.181L19.848,8.333H8.333v37.5H20.7c8.656,0,5.5-12.5,5.5-12.5,6.977,1.919,12.506.84,12.506-6.687a10.381,10.381,0,0,1,.846,4.144Z" transform="translate(906 156)"/></g></svg>