<svg xmlns="http://www.w3.org/2000/svg" xmlns:xlink="http://www.w3.org/1999/xlink" width="80" height="50" viewBox="0 0 80 50"><defs><style>.a{fill:none;}.b{clip-path:url(#a);}.c{fill:#f9f9f9;}</style><clipPath id="a"><rect class="a" width="80" height="50" transform="translate(891 156)"/></clipPath></defs><g class="b" transform="translate(-891 -156)"><path class="c" d="M0,0V50H50V0ZM24.956,8.333a16.607,16.607,0,0,1,14.885,9.1H26.935c-2.325,0-3.827-.052-5.454.8A7.693,7.693,0,0,0,17.625,23.3L12.358,14.14a16.48,16.48,0,0,1,12.6-5.806ZM30.533,25a5.54,5.54,0,1,1-5.54-5.544A5.545,5.545,0,0,1,30.533,25Zm-22.2-.06a16.458,16.458,0,0,1,2.7-9.037c1.827,3.183,5.846,10.185,7.367,12.813a7.464,7.464,0,0,0,8.74,3.54l-5.375,9.1A16.666,16.666,0,0,1,8.333,24.94ZM23.956,41.633C26,38.185,30.219,31.067,31.54,28.787a7.59,7.59,0,0,0-1.4-9.331H40.708A16.645,16.645,0,0,1,23.956,41.633Z" transform="translate(906 156)"/></g></svg>