<svg xmlns="http://www.w3.org/2000/svg" xmlns:xlink="http://www.w3.org/1999/xlink" width="80" height="50" viewBox="0 0 80 50"><defs><style>.a{fill:none;}.b{clip-path:url(#a);}.c{fill:#f9f9f9;}</style><clipPath id="a"><rect class="a" width="80" height="50" transform="translate(891 156)"/></clipPath></defs><g class="b" transform="translate(-891 -156)"><path class="c" d="M66.667,58.333V41.667h-50V58.333ZM58.333,47.222A2.778,2.778,0,1,1,55.556,50,2.777,2.777,0,0,1,58.333,47.222Zm-21.683,0h3.542l-2.4,5.556H34.253Zm-5.947,0h3.542l-2.4,5.556H28.306Zm-6.083,0h3.542l-2.4,5.556H22.222ZM11.111,49.836a12.689,12.689,0,0,1-.647-25.083,17.338,17.338,0,0,1,34.628,0A12.7,12.7,0,0,1,55.45,36.111H49.919c-.775-5.847-7.428-6.481-10.139-6.669.325-5.439-1.542-15.553-12-15.553-12.328,0-12.108,13.194-12,15.553-2.625-.1-10.219.947-10.219,7.828a7.176,7.176,0,0,0,5.556,6.975v5.592Z" transform="translate(897.667 147.667)"/></g></svg>