<svg xmlns="http://www.w3.org/2000/svg" width="60" height="60" viewBox="0 0 60 60"><defs><style>.a{fill:#f9f9f9;stroke:#707070;}.b{fill:#494949;}.c{stroke:none;}.d{fill:none;}</style></defs><g transform="translate(-1247 -250)"><g class="a" transform="translate(1247 250)"><circle class="c" cx="30" cy="30" r="30"/><circle class="d" cx="30" cy="30" r="29.5"/></g><path class="b" d="M38,4.473A15.589,15.589,0,0,1,33.523,5.7a7.819,7.819,0,0,0,3.429-4.318A15.613,15.613,0,0,1,32,3.283a7.8,7.8,0,0,0-13.284,7.111A22.133,22.133,0,0,1,2.653,2.248,7.8,7.8,0,0,0,5.071,12.657a7.773,7.773,0,0,1-3.544-.978q0,.049,0,.1A7.8,7.8,0,0,0,7.772,19.42a7.814,7.814,0,0,1-3.519.133,7.8,7.8,0,0,0,7.289,5.408A15.642,15.642,0,0,1,1.859,28.3,15.86,15.86,0,0,1,0,28.2a22.066,22.066,0,0,0,11.951,3.5A22.03,22.03,0,0,0,34.133,9.518q0-.508-.022-1.009A15.846,15.846,0,0,0,38,4.473" transform="translate(1259 265.172)"/></g></svg>