<svg xmlns="http://www.w3.org/2000/svg" width="60" height="60" viewBox="0 0 60 60"><defs><style>.a{fill:#f9f9f9;}.b{fill:#494949;}.c,.d{stroke:none;}.d{fill:#707070;}</style></defs><g transform="translate(-1247 -250)"><g class="a" transform="translate(1247 250)"><path class="c" d="M 30 59.5 C 26.01730918884277 59.5 22.15401077270508 58.72008895874023 18.51741981506348 57.18194961547852 C 15.00463962554932 55.69617080688477 11.84974002838135 53.56903839111328 9.140350341796875 50.85964965820313 C 6.430960178375244 48.15026092529297 4.303830146789551 44.995361328125 2.818049907684326 41.48257827758789 C 1.27990996837616 37.84598922729492 0.5 33.98268890380859 0.5 30 C 0.5 26.01730918884277 1.27990996837616 22.15401077270508 2.818049907684326 18.51741981506348 C 4.303830146789551 15.00463962554932 6.430960178375244 11.84974002838135 9.140350341796875 9.140350341796875 C 11.84974002838135 6.430960178375244 15.00463962554932 4.303830146789551 18.51741981506348 2.818049907684326 C 22.15401077270508 1.27990996837616 26.01730918884277 0.5 30 0.5 C 33.98268890380859 0.5 37.84598922729492 1.27990996837616 41.48257827758789 2.818049907684326 C 44.995361328125 4.303830146789551 48.15026092529297 6.430960178375244 50.85964965820313 9.140350341796875 C 53.56903839111328 11.84974002838135 55.69617080688477 15.00463962554932 57.18194961547852 18.51741981506348 C 58.72008895874023 22.15401077270508 59.5 26.01730918884277 59.5 30 C 59.5 33.98268890380859 58.72008895874023 37.84598922729492 57.18194961547852 41.48257827758789 C 55.69617080688477 44.995361328125 53.56903839111328 48.15026092529297 50.85964965820313 50.85964965820313 C 48.15026092529297 53.56903839111328 44.995361328125 55.69617080688477 41.48257827758789 57.18194961547852 C 37.84598922729492 58.72008895874023 33.98268890380859 59.5 30 59.5 Z"/><path class="d" d="M 30 1 C 26.08457946777344 1 22.28681945800781 1.766620635986328 18.71220016479492 3.278549194335938 C 15.2590217590332 4.739128112792969 12.15753936767578 6.830268859863281 9.493900299072266 9.493900299072266 C 6.830268859863281 12.15753936767578 4.739128112792969 15.2590217590332 3.278549194335938 18.71220016479492 C 1.766620635986328 22.28681945800781 1 26.08457946777344 1 30 C 1 33.91542053222656 1.766620635986328 37.71318054199219 3.278549194335938 41.28779983520508 C 4.739128112792969 44.74098205566406 6.830268859863281 47.84246063232422 9.493900299072266 50.50609970092773 C 12.15753936767578 53.16973114013672 15.2590217590332 55.26087188720703 18.71220016479492 56.72145080566406 C 22.28681945800781 58.23337936401367 26.08457946777344 59 30 59 C 33.91542053222656 59 37.71318054199219 58.23337936401367 41.28779983520508 56.72145080566406 C 44.74098205566406 55.26087188720703 47.84246063232422 53.16973114013672 50.50609970092773 50.50609970092773 C 53.16973114013672 47.84246063232422 55.26087188720703 44.74098205566406 56.72145080566406 41.28779983520508 C 58.23337936401367 37.71318054199219 59 33.91542053222656 59 30 C 59 26.08457946777344 58.23337936401367 22.28681945800781 56.72145080566406 18.71220016479492 C 55.26087188720703 15.2590217590332 53.16973114013672 12.15753936767578 50.50609970092773 9.493900299072266 C 47.84246063232422 6.830268859863281 44.74098205566406 4.739128112792969 41.28779983520508 3.278549194335938 C 37.71318054199219 1.766620635986328 33.91542053222656 1 30 1 M 30 0 C 46.56853866577148 0 60 13.43146133422852 60 30 C 60 46.56853866577148 46.56853866577148 60 30 60 C 13.43146133422852 60 0 46.56853866577148 0 30 C 0 13.43146133422852 13.43146133422852 0 30 0 Z"/></g><path class="b" d="M38,4.473A15.589,15.589,0,0,1,33.523,5.7a7.819,7.819,0,0,0,3.429-4.318A15.613,15.613,0,0,1,32,3.283a7.8,7.8,0,0,0-13.284,7.111A22.133,22.133,0,0,1,2.653,2.248,7.8,7.8,0,0,0,5.071,12.657a7.773,7.773,0,0,1-3.544-.978q0,.049,0,.1A7.8,7.8,0,0,0,7.772,19.42a7.814,7.814,0,0,1-3.519.133,7.8,7.8,0,0,0,7.289,5.408A15.642,15.642,0,0,1,1.859,28.3,15.86,15.86,0,0,1,0,28.2a22.066,22.066,0,0,0,11.951,3.5A22.03,22.03,0,0,0,34.133,9.518q0-.508-.022-1.009A15.846,15.846,0,0,0,38,4.473" transform="translate(1259 265.172)"/></g></svg>