<svg xmlns="http://www.w3.org/2000/svg" width="182.743" height="178.746" viewBox="0 0 182.743 178.746"><defs><style>.a{fill:#f9f9f9;stroke:#f9f9f9;stroke-linecap:round;stroke-width:3px;opacity:0.94;}</style></defs><g transform="translate(-31.5 3.399)"><path class="a" d="M136.1-29.7c3.377,0,36.112,13.8,36.112,16.985,0,0-27.279,98.525-25.194,115.5s36.971,40.5,34.813,42.751-48.217-2.839-56.151-5.5-16.192-9.851-34.9-7.123S77.093,137,69.4,137a61.787,61.787,0,0,1-34.473-9.99A69,69,0,0,1,10.866,99.851Q2.142,82.685,2.142,60.734q0-22.232,8.865-39.258A68.949,68.949,0,0,1,34.927-5.258a61.221,61.221,0,0,1,33.911-9.709,63.1,63.1,0,0,1,22.513,3.94c6.942,2.627,20.074-1.782,22.232-3.94S132.915-29.7,136.1-29.7ZM71.652,116.173a43.447,43.447,0,0,0,24.905-7.317,50.276,50.276,0,0,0,17.026-19.84,62.964,62.964,0,0,0,6.191-28.282,62.319,62.319,0,0,0-6.191-28,49.217,49.217,0,0,0-17.026-19.7A44.063,44.063,0,0,0,71.652,5.858a44.215,44.215,0,0,0-24.624,7.035A48.387,48.387,0,0,0,30,32.311q-6.191,12.382-6.191,28.423A62.964,62.964,0,0,0,30,89.017a50.276,50.276,0,0,0,17.026,19.84A42.975,42.975,0,0,0,71.652,116.173Z" transform="translate(30.858 27.801)"/></g></svg>