<svg xmlns="http://www.w3.org/2000/svg" xmlns:xlink="http://www.w3.org/1999/xlink" width="80" height="50" viewBox="0 0 80 50"><defs><style>.a{fill:none;}.b{clip-path:url(#a);}.c{fill:#f9f9f9;}</style><clipPath id="a"><rect class="a" width="80" height="50" transform="translate(891 156)"/></clipPath></defs><g class="b" transform="translate(-891 -156)"><path class="c" d="M37.5,20.9V7.517L24.925,0,12.5,7.435v13.54L0,27.692V42.725L12.783,50,25,42.931,37.217,50,50,42.725V27.773L37.5,20.9Zm-2.381.075-9,4.967V15.615l9-5.29ZM24.921,2.827l8.9,5.408-8.892,5.227-8.7-5.321ZM3.729,28.4l9.954-5.271,8.827,5.035-9.725,5.556L3.729,28.4Zm10.244,7.473,9.837-5.619V40.785l-9.837,5.744V35.871Zm13.567-7.8,8.848-4.979,9.935,5.4-9.1,5.227L27.54,28.067ZM47.619,41.24l-9.21,5.29V35.871l9.21-5.288V41.24Z" transform="translate(906 156)"/></g></svg>