<svg xmlns="http://www.w3.org/2000/svg" xmlns:xlink="http://www.w3.org/1999/xlink" width="80" height="50" viewBox="0 0 80 50"><defs><style>.a{fill:#fff;stroke:#707070;}.b{clip-path:url(#a);}.c{fill:#f9f9f9;}</style><clipPath id="a"><rect class="a" width="80" height="50" transform="translate(891 156)"/></clipPath></defs><g class="b" transform="translate(-891 -156)"><path class="c" d="M27.778,54.167A4.167,4.167,0,1,1,23.611,50,4.166,4.166,0,0,1,27.778,54.167ZM37.5,50a4.167,4.167,0,1,0,4.167,4.167A4.166,4.166,0,0,0,37.5,50Zm3.711-13.889L46.7,16.667H0L8.161,36.111Zm13.8-27.778L45.481,41.667H10.489l2.331,5.556H49.594l9.65-33.333H64.6l2.064-5.556Z" transform="translate(897.667 147.667)"/></g></svg>