<svg xmlns="http://www.w3.org/2000/svg" xmlns:xlink="http://www.w3.org/1999/xlink" width="80" height="50" viewBox="0 0 80 50"><defs><style>.a{fill:none;}.b{clip-path:url(#a);}.c{fill:#f9f9f9;fill-rule:evenodd;}</style><clipPath id="a"><rect class="a" width="80" height="50" transform="translate(891 156)"/></clipPath></defs><g class="b" transform="translate(-891 -156)"><path class="c" d="M2.083,45.833H6.25V0h37.5V45.833h4.167V50H2.083Zm14.583-6.25v8.333h6.25V39.583Zm10.417,0v8.333h6.25V39.583Zm-12.5-10.417H10.417v4.167h4.167Zm16.667,0H27.083v4.167H31.25Zm-8.333,0H18.75v4.167h4.167Zm16.667,0H35.417v4.167h4.167Zm-25-8.333H10.417V25h4.167Zm16.667,0H27.083V25H31.25Zm-8.333,0H18.75V25h4.167Zm16.667,0H35.417V25h4.167Zm-25-8.333H10.417v4.167h4.167Zm16.667,0H27.083v4.167H31.25Zm-8.333,0H18.75v4.167h4.167Zm16.667,0H35.417v4.167h4.167Zm-25-8.333H10.417V8.333h4.167Zm16.667,0H27.083V8.333H31.25Zm-8.333,0H18.75V8.333h4.167Zm16.667,0H35.417V8.333h4.167Z" transform="translate(906 156)"/></g></svg>