<svg xmlns="http://www.w3.org/2000/svg" xmlns:xlink="http://www.w3.org/1999/xlink" width="45" height="45" viewBox="0 0 45 45"><defs><style>.a{fill:rgba(255,255,255,0);}.b{clip-path:url(#a);}.c{fill:#f9f9f9;}</style><clipPath id="a"><rect class="a" width="45" height="45" transform="translate(189 82.911)"/></clipPath></defs><g class="b" transform="translate(-189 -82.911)"><path class="c" d="M14.573,1.8V15.268A6.287,6.287,0,0,1,2,15.268V4.49a4.49,4.49,0,0,1,8.981,0v8.083a2.694,2.694,0,0,1-5.389,0V5.389h1.8v7.185a.9.9,0,0,0,1.8,0V4.49a2.694,2.694,0,0,0-5.389,0V15.268a4.49,4.49,0,1,0,8.981,0V1.8Zm3.592,0V5.389c5.9,0,6.775,5.292,5.389,10.777,0,0,10.777-2.964,10.777,4.413V39.516H7.389V25.1A9.8,9.8,0,0,1,3.8,24.056V43.109H37.924V19.065C37.924,15.754,27.9,1.8,18.166,1.8ZM15.473,26.943a2.694,2.694,0,1,0-2.7-2.694A2.695,2.695,0,0,0,15.473,26.943Zm13.47,7.185H12.777l3.767-5.389L18.9,30.478l3.759-5.331Z" transform="translate(191.49 83.904)"/></g></svg>