<svg xmlns="http://www.w3.org/2000/svg" xmlns:xlink="http://www.w3.org/1999/xlink" width="45" height="45" viewBox="0 0 45 45"><defs><style>.a{fill:rgba(255,128,128,0);}.b{clip-path:url(#a);}.c{fill:#f9f9f9;}</style><clipPath id="a"><rect class="a" width="45" height="45" transform="translate(267 387)"/></clipPath></defs><g class="b" transform="translate(-267 -387)"><path class="c" d="M14.633,9.667,14.667,9a8.6,8.6,0,0,0-.241-2h7.991l-.752,2.667H14.633ZM11.333,23a2,2,0,1,0,2,2A2,2,0,0,0,11.333,23ZM26.407,3,21.831,19H7.927L7.32,17.556A8.785,8.785,0,0,1,6,17.667a8.653,8.653,0,0,1-1.588-.152l1.741,4.152H23.805l4.632-16h2.572L32,3ZM18,23a2,2,0,1,0,2,2A2,2,0,0,0,18,23ZM6,3a6,6,0,1,0,6,6A6,6,0,0,0,6,3Zm-.625,8.645L3.125,9.464l.927-.929L5.375,9.788,8.195,6.9l.929.928Z" transform="translate(274 395)"/></g></svg>