<svg xmlns="http://www.w3.org/2000/svg" xmlns:xlink="http://www.w3.org/1999/xlink" width="80" height="50" viewBox="0 0 80 50"><defs><style>.a,.c{fill:none;}.b{clip-path:url(#a);}.c{stroke-linecap:round;stroke-linejoin:round;}.d{fill:#f9f9f9;font-size:10px;font-family:mplus-2p-black, 'M\+ \32 p';font-weight:800;letter-spacing:0.15em;}.e,.f{stroke:none;}.f{fill:#f9f9f9;}</style><clipPath id="a"><rect class="a" width="80" height="50" transform="translate(326 1001)"/></clipPath></defs><g class="b" transform="translate(-326 -1001)"><g transform="translate(-563.042 843.648)"><g class="c" transform="translate(918.685 151.047) rotate(31)"><path class="e" d="M35.774,0a3,3,0,0,1,2.594,1.492l10.756,18.5a3,3,0,0,1,0,3.016l-10.756,18.5A3,3,0,0,1,35.774,43H14.226a3,3,0,0,1-2.594-1.492L.877,23.008a3,3,0,0,1,0-3.016l10.756-18.5A3,3,0,0,1,14.226,0Z"/><path class="f" d="M 15.37665939331055 5.000003814697266 L 5.783634185791016 21.5 L 15.37667465209961 38 L 34.62333679199219 38 L 44.21635818481445 21.49999046325684 L 34.62334060668945 5.000003814697266 L 15.37665939331055 5.000003814697266 M 14.22600173950195 3.814697265625e-06 L 35.77400207519531 3.814697265625e-06 C 36.84254455566406 3.814697265625e-06 37.8304443359375 0.5683670043945313 38.36752319335938 1.492134094238281 L 49.12333679199219 19.99213600158691 C 49.66531372070313 20.92433547973633 49.66531372070313 22.07566833496094 49.12333679199219 23.00785827636719 L 38.36752319335938 41.50785827636719 C 37.8304443359375 42.43162536621094 36.84254455566406 43 35.77400207519531 43 L 14.22600173950195 43 C 13.15744781494141 43 12.16954803466797 42.43162536621094 11.63248062133789 41.50785827636719 L 0.8766555786132813 23.00785827636719 C 0.3346900939941406 22.07566833496094 0.3346900939941406 20.92432403564453 0.8766555786132813 19.99213600158691 L 11.63248062133789 1.492134094238281 C 12.1695556640625 0.5683670043945313 13.15744781494141 3.814697265625e-06 14.22600173950195 3.814697265625e-06 Z"/></g><text class="d" transform="translate(914 186.034)"><tspan x="0" y="0">Hugo</tspan></text></g></g></svg>