<svg xmlns="http://www.w3.org/2000/svg" width="40" height="40" viewBox="0 0 40 40">
  <g id="insta-icon" transform="translate(-1323 -248)">
    <g id="パス_122" data-name="パス 122" transform="translate(1323 248)" fill="#f9f9f9" stroke-linecap="round">
      <path d="M 20 39.70000076293945 C 17.34038925170898 39.70000076293945 14.76049041748047 39.17918014526367 12.33197021484375 38.15200042724609 C 9.986140251159668 37.1598014831543 7.879310131072998 35.73931121826172 6.070000171661377 33.93000030517578 C 4.260690212249756 32.12068939208984 2.840199947357178 30.01386070251465 1.848000049591064 27.66802978515625 C 0.8208199739456177 25.23950958251953 0.300000011920929 22.65961074829102 0.300000011920929 20 C 0.300000011920929 17.34038925170898 0.8208199739456177 14.76049041748047 1.848000049591064 12.33197021484375 C 2.840199947357178 9.986140251159668 4.260690212249756 7.879310131072998 6.070000171661377 6.070000171661377 C 7.879310131072998 4.260690212249756 9.986140251159668 2.840199947357178 12.33197021484375 1.848000049591064 C 14.76049041748047 0.8208199739456177 17.34038925170898 0.300000011920929 20 0.300000011920929 C 22.65961074829102 0.300000011920929 25.23950958251953 0.8208199739456177 27.66802978515625 1.848000049591064 C 30.01386070251465 2.840199947357178 32.12068939208984 4.260690212249756 33.93000030517578 6.070000171661377 C 35.73931121826172 7.879310131072998 37.1598014831543 9.986140251159668 38.15200042724609 12.33197021484375 C 39.17918014526367 14.76049041748047 39.70000076293945 17.34038925170898 39.70000076293945 20 C 39.70000076293945 22.65961074829102 39.17918014526367 25.23950958251953 38.15200042724609 27.66802978515625 C 37.1598014831543 30.01386070251465 35.73931121826172 32.12068939208984 33.93000030517578 33.93000030517578 C 32.12068939208984 35.73931121826172 30.01386070251465 37.1598014831543 27.66802978515625 38.15200042724609 C 25.23950958251953 39.17918014526367 22.65961074829102 39.70000076293945 20 39.70000076293945 Z" stroke="none"/>
      <path d="M 20 0.5999984741210938 C 17.38075065612793 0.5999984741210938 14.84016990661621 1.112850189208984 12.44882965087891 2.124298095703125 C 10.13875961303711 3.10137939453125 8.063989639282227 4.500270843505859 6.282131195068359 6.282131195068359 C 4.500270843505859 8.063989639282227 3.10137939453125 10.13875961303711 2.124298095703125 12.44882965087891 C 1.112850189208984 14.84016990661621 0.5999984741210938 17.38075065612793 0.5999984741210938 20 C 0.5999984741210938 22.61924934387207 1.112850189208984 25.15983009338379 2.124298095703125 27.55117034912109 C 3.10137939453125 29.86124038696289 4.500270843505859 31.93601036071777 6.282131195068359 33.71786880493164 C 8.063989639282227 35.49972915649414 10.13875961303711 36.89862060546875 12.44882965087891 37.87570190429688 C 14.84016990661621 38.88714981079102 17.38075065612793 39.40000152587891 20 39.40000152587891 C 22.61924934387207 39.40000152587891 25.15983009338379 38.88714981079102 27.55117034912109 37.87570190429688 C 29.86124038696289 36.89862060546875 31.93601036071777 35.49972915649414 33.71786880493164 33.71786880493164 C 35.49972915649414 31.93601036071777 36.89862060546875 29.86124038696289 37.87570190429688 27.55117034912109 C 38.88714981079102 25.15983009338379 39.40000152587891 22.61924934387207 39.40000152587891 20 C 39.40000152587891 17.38075065612793 38.88714981079102 14.84016990661621 37.87570190429688 12.44882965087891 C 36.89862060546875 10.13875961303711 35.49972915649414 8.063989639282227 33.71786880493164 6.282131195068359 C 31.93601036071777 4.500270843505859 29.86124038696289 3.10137939453125 27.55117034912109 2.124298095703125 C 25.15983009338379 1.112850189208984 22.61924934387207 0.5999984741210938 20 0.5999984741210938 M 20 0 C 31.04568862915039 0 40 8.954309463500977 40 20 C 40 31.04568862915039 31.04568862915039 40 20 40 C 8.954309463500977 40 0 31.04568862915039 0 20 C 0 8.954309463500977 8.954309463500977 0 20 0 Z" stroke="none" fill="#222"/>
    </g>
    <path id="insta-fotterIcon" d="M11,1.982c2.937,0,3.285.011,4.445.064a6.089,6.089,0,0,1,2.043.379,3.409,3.409,0,0,1,1.265.823,3.408,3.408,0,0,1,.823,1.265,6.088,6.088,0,0,1,.379,2.043c.053,1.16.064,1.508.064,4.445s-.011,3.285-.064,4.445a6.088,6.088,0,0,1-.379,2.043,3.642,3.642,0,0,1-2.088,2.088,6.086,6.086,0,0,1-2.043.379c-1.16.053-1.508.064-4.445.064s-3.285-.011-4.445-.064a6.085,6.085,0,0,1-2.043-.379,3.407,3.407,0,0,1-1.265-.823,3.408,3.408,0,0,1-.823-1.265,6.087,6.087,0,0,1-.379-2.043c-.053-1.16-.064-1.508-.064-4.445s.011-3.285.064-4.445a6.087,6.087,0,0,1,.379-2.043,3.408,3.408,0,0,1,.823-1.265,3.409,3.409,0,0,1,1.265-.823,6.088,6.088,0,0,1,2.042-.379c1.16-.053,1.508-.064,4.445-.064M11,0C8.013,0,7.638.013,6.465.066A8.074,8.074,0,0,0,3.8.577,5.392,5.392,0,0,0,1.846,1.846,5.392,5.392,0,0,0,.577,3.795a8.074,8.074,0,0,0-.511,2.67C.013,7.638,0,8.013,0,11s.013,3.362.066,4.535A8.074,8.074,0,0,0,.577,18.2a5.392,5.392,0,0,0,1.269,1.948,5.391,5.391,0,0,0,1.948,1.269,8.073,8.073,0,0,0,2.67.511C7.638,21.987,8.013,22,11,22s3.362-.013,4.535-.066a8.073,8.073,0,0,0,2.67-.511,5.625,5.625,0,0,0,3.217-3.217,8.075,8.075,0,0,0,.511-2.67C21.987,14.362,22,13.987,22,11s-.013-3.362-.066-4.535a8.075,8.075,0,0,0-.511-2.67,5.392,5.392,0,0,0-1.269-1.948A5.392,5.392,0,0,0,18.2.578a8.074,8.074,0,0,0-2.67-.511C14.362.013,13.987,0,11,0Zm0,5.351A5.649,5.649,0,1,0,16.649,11,5.649,5.649,0,0,0,11,5.351Zm0,9.315A3.667,3.667,0,1,1,14.667,11,3.667,3.667,0,0,1,11,14.666Zm7.192-9.539a1.32,1.32,0,1,1-1.32-1.32,1.32,1.32,0,0,1,1.32,1.32Z" transform="translate(1332 257)" fill="#222"/>
  </g>
</svg>
