<svg xmlns="http://www.w3.org/2000/svg" xmlns:xlink="http://www.w3.org/1999/xlink" width="80" height="50" viewBox="0 0 80 50"><defs><style>.a{fill:none;}.b{clip-path:url(#a);}.c{fill:#f9f9f9;fill-rule:evenodd;}</style><clipPath id="a"><rect class="a" width="80" height="50" transform="translate(891 156)"/></clipPath></defs><g class="b" transform="translate(-891 -156)"><path class="c" d="M0,2.273H54.545v50H0ZM50,47.727V13.636H4.545V47.727ZM37.6,23.909l-9.416,8.134a4.547,4.547,0,1,0,3.389,3.03L38.636,24.83l-1.034-.92ZM15.909,38.636H9.091A18.188,18.188,0,0,1,34.7,22.036l-6.341,5.286-1.084-.05A11.369,11.369,0,0,0,15.909,38.636Zm29.545,0H38.636a11.3,11.3,0,0,0-1.375-5.42l3.93-6.275A18.117,18.117,0,0,1,45.455,38.636Z" transform="translate(903.727 153.727)"/></g></svg>