<svg xmlns="http://www.w3.org/2000/svg" width="40" height="40" viewBox="0 0 40 40">
  <g id="twitter-icon" transform="translate(-1247 -250)">
    <g id="パス_123" data-name="パス 123" transform="translate(1247 250)" fill="#f9f9f9">
      <path d="M 20 39.70000076293945 C 17.34038925170898 39.70000076293945 14.76049041748047 39.17918014526367 12.33197021484375 38.15200042724609 C 9.986140251159668 37.1598014831543 7.879310131072998 35.73931884765625 6.070000171661377 33.93001174926758 C 4.260690212249756 32.12070083618164 2.840199947357178 30.01387023925781 1.848000049591064 27.66803932189941 C 0.8208199739456177 25.2395191192627 0.300000011920929 22.65962028503418 0.300000011920929 20 C 0.300000011920929 17.34038925170898 0.8208199739456177 14.76049041748047 1.848000049591064 12.33197021484375 C 2.840199947357178 9.986140251159668 4.260690212249756 7.879310131072998 6.070000171661377 6.070000171661377 C 7.879310131072998 4.260690212249756 9.986140251159668 2.840199947357178 12.33197021484375 1.848000049591064 C 14.76049041748047 0.8208199739456177 17.34038925170898 0.300000011920929 20 0.300000011920929 C 22.65962028503418 0.300000011920929 25.2395191192627 0.8208199739456177 27.66803932189941 1.848000049591064 C 30.01387023925781 2.840199947357178 32.12070083618164 4.260690212249756 33.93001174926758 6.070000171661377 C 35.73931884765625 7.879310131072998 37.1598014831543 9.986140251159668 38.15200042724609 12.33197021484375 C 39.17918014526367 14.76049041748047 39.70000076293945 17.34038925170898 39.70000076293945 20 C 39.70000076293945 22.65962028503418 39.17918014526367 25.2395191192627 38.15200042724609 27.66803932189941 C 37.1598014831543 30.01387023925781 35.73931884765625 32.12070083618164 33.93001174926758 33.93001174926758 C 32.12070083618164 35.73931884765625 30.01387023925781 37.1598014831543 27.66803932189941 38.15200042724609 C 25.2395191192627 39.17918014526367 22.65962028503418 39.70000076293945 20 39.70000076293945 Z" stroke="none"/>
      <path d="M 20 0.5999984741210938 C 17.38075065612793 0.5999984741210938 14.84016990661621 1.112850189208984 12.44882965087891 2.124298095703125 C 10.13875961303711 3.10137939453125 8.063989639282227 4.500270843505859 6.282131195068359 6.282131195068359 C 4.500270843505859 8.063989639282227 3.10137939453125 10.13875961303711 2.124298095703125 12.44882965087891 C 1.112850189208984 14.84016990661621 0.5999984741210938 17.38075065612793 0.5999984741210938 20 C 0.5999984741210938 22.61924934387207 1.112850189208984 25.15983009338379 2.124298095703125 27.55117034912109 C 3.10137939453125 29.86124038696289 4.500270843505859 31.93601989746094 6.282131195068359 33.71786880493164 C 8.063989639282227 35.49972915649414 10.13875961303711 36.89862060546875 12.44882965087891 37.87570190429688 C 14.84016990661621 38.88714981079102 17.38075065612793 39.40000152587891 20 39.40000152587891 C 22.61924934387207 39.40000152587891 25.15983009338379 38.88714981079102 27.55117034912109 37.87570190429688 C 29.86124038696289 36.89862060546875 31.93601989746094 35.49972915649414 33.71786880493164 33.71786880493164 C 35.49972915649414 31.93601989746094 36.89862060546875 29.86124038696289 37.87570190429688 27.55117034912109 C 38.88714981079102 25.15983009338379 39.40000152587891 22.61924934387207 39.40000152587891 20 C 39.40000152587891 17.38075065612793 38.88714981079102 14.84016990661621 37.87570190429688 12.44882965087891 C 36.89862060546875 10.13875961303711 35.49972915649414 8.063989639282227 33.71786880493164 6.282131195068359 C 31.93601989746094 4.500270843505859 29.86124038696289 3.10137939453125 27.55117034912109 2.124298095703125 C 25.15983009338379 1.112850189208984 22.61924934387207 0.5999984741210938 20 0.5999984741210938 M 20 0 C 31.04570007324219 0 40 8.954309463500977 40 20 C 40 31.04570007324219 31.04570007324219 40 20 40 C 8.954309463500977 40 0 31.04570007324219 0 20 C 0 8.954309463500977 8.954309463500977 0 20 0 Z" stroke="none" fill="#222"/>
    </g>
    <path id="twitter-fotterIcon" d="M22,2.938a9.025,9.025,0,0,1-2.592.711,4.527,4.527,0,0,0,1.985-2.5,9.039,9.039,0,0,1-2.866,1.1,4.518,4.518,0,0,0-7.691,4.117,12.814,12.814,0,0,1-9.3-4.716,4.518,4.518,0,0,0,1.4,6.026A4.5,4.5,0,0,1,.884,7.11q0,.028,0,.057A4.516,4.516,0,0,0,4.5,11.592a4.524,4.524,0,0,1-2.038.077A4.518,4.518,0,0,0,6.682,14.8a9.056,9.056,0,0,1-5.606,1.932A9.182,9.182,0,0,1,0,16.673,12.775,12.775,0,0,0,6.919,18.7,12.754,12.754,0,0,0,19.761,5.859q0-.294-.013-.584A9.174,9.174,0,0,0,22,2.938" transform="translate(1256.273 260.849)" fill="#222"/>
  </g>
</svg>
