<?xml version="1.0" encoding="UTF-8" standalone="no"?>
<svg width="393px" height="85px" viewBox="0 0 393 85" version="1.1" xmlns="http://www.w3.org/2000/svg" xmlns:xlink="http://www.w3.org/1999/xlink" xmlns:sketch="http://www.bohemiancoding.com/sketch/ns">
    <!-- Generator: Sketch 3.5.1 (25234) - http://www.bohemiancoding.com/sketch -->
    <title>Page 1</title>
    <desc>Created with Sketch.</desc>
    <defs>
        <path id="path-1" d="M0,0.379913043 L392.816783,0.379913043 L392.816783,85 L0,85"></path>
        <path id="path-3" d="M0,0.379913043 L392.816783,0.379913043 L392.816783,85 L0,85"></path>
    </defs>
    <g id="Page-1" stroke="none" stroke-width="1" fill="none" fill-rule="evenodd" sketch:type="MSPage">
        <g id="Artboard-3" sketch:type="MSArtboardGroup" transform="translate(-20.000000, -22.000000)">
            <g id="Page-1" sketch:type="MSLayerGroup" transform="translate(20.000000, 22.000000)">
                <g id="Group-3">
                    <mask id="mask-2" sketch:name="Clip 2" fill="white">
                        <use xlink:href="#path-1"></use>
                    </mask>
                    <g id="Clip-2"></g>
                    <path d="M80.443187,27.0925304 L22.9469696,27.0925304 L27.930187,0.379617391 L84.4581435,0.379617391 C86.3074478,0.379617391 87.6888826,2.03526957 87.3629261,3.86092174 L83.452187,24.5669217 C83.192013,26.0222696 81.9177522,27.0925304 80.443187,27.0925304" id="Fill-1" fill="#29ABE2" sketch:type="MSShapeGroup" mask="url(#mask-2)"></path>
                </g>
                <path d="M57.1860783,59.8139826 L16.5967304,59.8139826 L21.5799478,33.1010696 L61.2010348,33.1010696 C63.0503391,33.1010696 64.4317739,34.7567217 64.1058174,36.5823739 L60.1950783,57.2883739 C59.9349043,58.7437217 58.6606435,59.8139826 57.1860783,59.8139826" id="Fill-4" fill="#8CC63F" sketch:type="MSShapeGroup"></path>
                <g id="Group-8">
                    <mask id="mask-4" sketch:name="Clip 7" fill="white">
                        <use xlink:href="#path-3"></use>
                    </mask>
                    <g id="Clip-7"></g>
                    <path d="M3.5048087,85 L3.5048087,85 C1.28815652,85 -0.356408696,82.9984348 0.066373913,80.8157826 L15.1594174,2.77469565 C15.4284609,1.3843913 16.6458087,0.379913043 18.0627217,0.379913043 L22.8633739,0.379913043 L7.06741739,82.0538261 C6.73702609,83.7575217 5.23511304,85 3.5048087,85" id="Fill-6" fill="#AAAABE" sketch:type="MSShapeGroup" mask="url(#mask-4)"></path>
                </g>
                <path d="M378.444539,62.4529 L378.445278,62.4529 L378.444539,62.4529 Z M355.90993,62.633987 C355.888496,62.6132913 355.85893,62.5815087 355.821235,62.5342043 C355.823452,62.5364217 355.82493,62.5371609 355.82493,62.5371609 C355.836017,62.5371609 355.827148,62.4795087 355.830104,62.4521609 L356.625409,58.3374217 C356.983887,56.4814652 357.341626,54.6306826 357.7038,52.7813783 C357.7038,52.7813783 361.774191,32.0591174 362.477104,28.4654652 C362.477104,28.4654652 362.526626,28.1875522 362.534757,28.1476391 C364.166017,28.1587261 365.749974,28.1616826 367.342061,28.1616826 L371.789409,28.1587261 L370.884713,32.6482043 L373.208539,30.5860304 C373.614322,30.2238565 373.937322,29.9348565 374.27067,29.6562043 C376.192409,28.0449 378.79193,27.1572043 381.5888,27.1572043 C385.005061,27.1572043 388.212148,28.5105522 390.16567,30.7782043 C392.266278,33.2129 393.145104,36.2832478 392.7068,39.6566391 C392.331322,42.5473783 391.759235,45.4676826 391.206365,48.2911609 C391.014191,49.2697696 390.833843,50.1892478 390.659409,51.1087261 C390.023757,54.4665957 389.300887,58.1038565 388.450887,62.2296826 C388.441278,62.2695957 388.382887,62.3745522 388.322278,62.4506826 C386.062017,62.4506826 383.786235,62.4551174 381.667887,62.4551174 L378.505148,62.4529 L379.095713,59.3847696 C379.511843,57.2161609 379.923539,55.0749 380.33893,52.9343783 L380.966452,49.7354217 C381.396626,47.5505522 381.8268,45.3656826 382.231843,43.1756391 C382.367843,42.4424217 382.400365,41.6419435 382.32793,40.7985957 C382.115061,38.2922043 380.606496,36.7666391 378.081626,36.5012913 C377.73793,36.4650739 377.383148,36.4465957 377.026887,36.4465957 C373.244757,36.4465957 370.639322,38.714987 369.692496,42.8334217 C368.941539,46.0981609 368.298496,49.4272043 367.678365,52.6468565 L367.518713,53.4776391 C367.293278,54.6499 367.065626,55.828813 366.834278,56.9951609 C366.653191,57.9050304 366.473583,58.8274652 366.293974,59.7499 L366.029365,61.1062043 L365.752191,62.5837261 C365.749235,62.5962913 365.739626,62.616987 365.728539,62.633987 L355.90993,62.633987 Z" id="Fill-9" fill="#777789" sketch:type="MSShapeGroup"></path>
                <path d="M330.493526,63.4388261 C328.14383,63.4388261 325.811874,63.036 323.560483,62.2414348 C318.918743,60.6035217 316.063483,56.7777826 315.727917,51.7465217 C315.557917,49.1861739 316.045004,46.7596087 316.560917,44.1911304 C316.668091,43.6633913 316.772309,43.123087 316.870613,42.6027391 C317.514396,39.202 318.180352,35.7650435 318.847048,32.3532174 L319.685961,27.9923478 C319.690396,27.9672174 319.711091,27.9265652 319.732526,27.8947826 L329.581439,27.8947826 C329.611743,27.9295217 329.644265,27.9686957 329.6657,27.9960435 C329.678265,28.0426087 329.687135,28.123913 329.6827,28.1623478 L327.199961,40.8517391 C326.76757,43.055087 326.345526,45.2052174 325.930874,47.356087 C325.856961,47.7441304 325.818526,48.1646957 325.810396,48.6806087 C325.783787,50.4360435 326.288613,51.8891739 327.269439,52.8840435 C328.168222,53.7968696 329.434352,54.2787826 330.930352,54.2787826 C331.37457,54.2787826 331.838743,54.235913 332.30957,54.1494348 C335.124178,53.6386957 337.080657,51.9446087 337.967613,49.2519565 C338.646135,47.1875652 339.079265,45.0226522 339.498352,42.9286957 L339.669091,42.0683478 C340.267787,39.1066522 340.84357,36.079913 341.400874,33.1536957 C341.400874,33.1536957 342.163657,29.1113913 342.303352,28.3907391 L342.328483,28.2517826 C342.344004,28.1616087 342.362483,28.0588696 342.379483,27.987913 C342.386135,27.9605652 342.406091,27.9236087 342.427526,27.8947826 L352.262396,27.8947826 C352.2927,27.9287826 352.325961,27.9694348 352.348135,27.9960435 C352.351091,28.0056522 352.364396,28.1032174 352.359222,28.146087 L352.271265,28.6080435 C352.133048,29.3368261 352.009613,29.9909565 351.879526,30.6436087 C351.487048,32.5971304 351.113048,34.5558261 350.739048,36.5152609 L350.70357,36.7015217 C349.824743,41.3070435 348.917091,46.0692609 347.792135,50.705087 C346.289483,56.8967826 342.595309,60.8733043 336.810874,62.5237826 C334.682178,63.1306087 332.556439,63.4388261 330.493526,63.4388261" id="Fill-11" fill="#777789" sketch:type="MSShapeGroup"></path>
                <path d="M280.312778,62.6340609 C280.292822,62.6155826 280.266952,62.5874957 280.232952,62.5461043 C280.23517,62.5483217 280.235909,62.5490609 280.237387,62.5490609 C280.246996,62.5490609 280.239604,62.4988 280.241822,62.4751478 L280.655735,60.3139304 C280.938083,58.8401043 281.218213,57.3773652 281.504257,55.9153652 L283.292213,46.8004087 C284.496257,40.6663652 285.699561,34.5308435 286.893257,28.3938435 C286.903604,28.339887 286.925039,28.2275391 286.948691,28.1454957 C286.963474,28.1447565 286.980474,28.1447565 286.999691,28.1447565 C288.599909,28.1573217 290.189778,28.1610174 291.789996,28.1610174 L296.19817,28.1573217 L295.293474,33.0001043 L297.040039,31.0931478 C299.437039,28.4773652 302.159996,27.2060609 305.365604,27.2060609 C306.702691,27.2060609 308.16617,27.4300174 309.71317,27.8720174 L307.070778,37.3631913 C306.830561,37.3210609 306.22743,37.2131478 306.22743,37.2131478 C305.287996,37.0424087 304.103909,36.8265826 302.970083,36.7608 C302.74243,36.7482348 302.517735,36.7415826 302.296735,36.7415826 C297.94843,36.7415826 294.800474,39.2908435 293.874343,43.5615391 C293.128561,46.9970174 292.459648,50.5152783 291.812909,53.9189739 L291.491387,55.6174957 C291.272604,56.7727565 291.057517,57.9102783 290.838735,59.0337565 L290.155778,62.5911913 C290.153561,62.6030174 290.14617,62.6192783 290.1373,62.6340609 L280.312778,62.6340609 Z" id="Fill-13" fill="#777789" sketch:type="MSShapeGroup"></path>
                <path d="M139.715313,17.5779261 L141.491443,14.6613174 C141.6814,14.3494043 141.584574,13.9384478 141.2734,13.7359261 C137.509009,11.2864478 133.482965,10.6892304 129.306878,11.9575783 C125.501096,13.1143174 123.008748,15.9414913 121.687183,20.6017087 C121.048574,22.8545783 120.608791,25.2079696 120.180096,27.500013 L119.945791,28.2421 C119.817183,28.9221 119.562922,28.6338391 118.905096,28.6338391 L118.835617,28.6338391 C117.854052,28.6338391 116.493313,29.1172304 115.091183,29.1172304 L110.814574,29.3774043 C110.504878,29.3781435 110.238791,29.7159261 110.167835,30.016013 L109.367357,33.4877087 C109.320052,33.6902304 109.371052,33.6436652 109.502617,33.8084913 C109.634183,33.9733174 109.835226,33.8077522 110.0444,33.8077522 L118.815661,33.8077522 L113.309139,62.2827522 C113.269965,62.4823174 113.322443,62.8267522 113.45327,62.9864043 C113.585574,63.1453174 113.778487,63.3729696 113.983226,63.3729696 L117.979704,63.3729696 C118.286443,63.3729696 118.551791,63.1778391 118.625704,62.8814478 C118.662661,62.7343609 118.698139,62.5939261 118.726965,62.4468391 L119.79427,57.0179261 C121.18753,49.9244913 122.628096,42.5908391 124.011748,35.3747087 C124.161052,34.5978826 124.398313,34.3968391 125.159617,34.3968391 C126.544748,34.4175348 127.930617,34.4234478 129.317226,34.4234478 L136.332313,34.4160565 C136.653835,34.4153174 136.927313,34.1891435 136.986443,33.8735348 L137.62727,30.4387957 C137.664965,30.2392304 137.61027,29.5363174 137.478704,29.3788826 C137.347139,29.2214478 137.152748,28.6338391 136.949487,28.6338391 L125.172922,28.6338391 C125.230574,28.6338391 125.271965,28.5813609 125.328139,28.2576217 C125.425704,27.6884913 125.518835,27.3987522 125.651878,26.8739696 C125.819661,26.2139261 125.971922,25.6706652 126.123443,25.0002739 C126.501878,23.3305783 126.894357,21.6667957 127.549965,20.0850565 C128.556661,17.6540565 130.60553,16.2911 133.169574,16.2911 C133.703226,16.2911 134.26053,16.3672304 134.823748,16.4869696 C135.881443,16.7116652 136.9384,17.1144913 137.959878,17.4958826 L138.024922,17.5239696 C138.319096,17.6333609 138.615487,17.7457087 138.915574,17.8536217 C139.2164,17.963013 139.550487,17.8484478 139.715313,17.5779261 L139.715313,17.5779261 Z" id="Fill-15" fill="#777789" sketch:type="MSShapeGroup"></path>
                <path d="M266.128274,30.0246609 C260.646143,27.9550957 255.272665,28.7045739 250.388491,32.2139652 C249.483057,32.8651391 248.710665,33.6552696 247.866578,34.5200522 C247.505883,34.8896174 247.143709,35.2599217 246.767491,35.6184 C244.744491,31.4127478 241.269839,29.2397043 236.144709,28.977313 C231.406143,28.7385739 227.484317,30.2937043 224.216622,33.7572696 L224.817535,30.5065739 C224.854491,30.3070087 224.799057,29.5700957 224.667491,29.4126609 C224.535926,29.2552261 224.340796,28.6343565 224.138274,28.6343565 L220.213491,28.6343565 C219.894187,28.6343565 219.622187,29.3882696 219.560839,29.7009217 L213.230926,62.297313 C213.191013,62.4976174 213.24497,62.8346609 213.375796,62.9935739 C213.507361,63.152487 213.702491,63.373487 213.90723,63.373487 L217.86823,63.373487 C218.187535,63.373487 218.461013,63.1539652 218.522361,62.8405739 L218.992448,60.4347043 C219.409317,58.2927043 219.82397,56.1610522 220.258578,54.0323565 C220.476622,52.9672696 220.679143,51.8962696 220.881665,50.8260087 C221.385752,48.1562696 221.906839,45.3963565 222.6711,42.7532261 C224.250622,37.2925304 228.511709,34.0329652 234.06923,34.0329652 C234.730013,34.0329652 235.411491,34.0795304 236.093709,34.1711826 C239.318535,34.6035739 241.552926,36.6657478 242.070317,39.687313 C242.288361,40.9630522 242.295013,42.3297043 242.089535,43.6372261 C241.730317,45.9181826 241.270578,48.2198348 240.824883,50.4505304 C240.661535,51.2613565 240.499665,52.0729217 240.34223,52.8852261 C239.862535,55.3509652 239.379143,57.8152261 238.891317,60.2987043 L238.444883,62.5796609 C238.40497,62.7799652 238.458926,62.9758348 238.589752,63.1347478 C238.721317,63.2936609 238.916448,63.373487 239.121187,63.373487 L243.049665,63.373487 C243.36897,63.373487 243.641709,63.1628348 243.703057,62.8501826 L244.655057,58.018487 C245.51097,53.6672261 246.36023,49.3544 247.197665,45.0364 C248.449013,38.5926609 252.296926,34.7055739 258.034057,34.0898783 C261.468796,33.7232696 264.263448,34.5769652 265.9021,36.5142261 C267.353013,38.230487 267.851187,40.6977043 267.343404,43.6490522 C266.842274,46.5567913 266.256883,49.4660087 265.691448,52.2791391 L265.627143,52.595487 C265.390622,53.7773565 265.153361,54.9592261 264.922013,56.1418348 L263.664752,62.5840957 C263.625578,62.7844 263.679535,62.9780522 263.810361,63.1369652 C263.942665,63.2958783 264.137057,63.373487 264.341057,63.373487 L268.285796,63.373487 C268.593274,63.373487 268.857883,63.1820522 268.931796,62.8856609 C268.969491,62.7341391 269.00497,62.5929652 269.036013,62.4421826 L269.794361,58.6415739 C270.469187,55.2607913 271.143274,51.881487 271.807013,48.4977478 C271.908274,47.9751826 272.019883,47.4548348 272.130752,46.9337478 L272.151448,46.8391391 C272.673274,44.3955739 273.166274,42.0872696 272.9231,39.6067478 C272.449317,34.7706174 270.163187,31.5465304 266.128274,30.0246609" id="Fill-17" fill="#777789" sketch:type="MSShapeGroup"></path>
                <path d="M210.023765,30.0613217 C208.272026,29.2571478 206.375417,28.9164087 204.085591,28.963713 C200.307896,29.0494522 197.114113,30.5358435 194.319461,33.5071478 L194.877504,30.5210609 C194.9152,30.3214957 194.859765,29.5771913 194.7282,29.4197565 C194.596635,29.2623217 194.402243,28.6340609 194.198243,28.6340609 L190.280113,28.6340609 C189.960809,28.6340609 189.68807,29.3946261 189.627461,29.7072783 L183.297548,62.3081043 C183.258374,62.5076696 183.311591,62.8395391 183.443157,62.9984522 C183.573983,63.1573652 183.769852,63.3731913 183.973852,63.3731913 L187.93707,63.3731913 C188.257113,63.3731913 188.529113,63.1610609 188.590461,62.8484087 C188.781157,61.8816261 188.969635,60.923713 189.159591,59.9414087 C189.659243,57.3714522 190.176635,54.7164957 190.725809,52.122887 C190.900983,51.2994957 191.066548,50.4731478 191.232113,49.6453217 C191.763548,46.9866696 192.3142,44.2385826 193.17307,41.6375826 C194.623243,37.2515826 197.744591,34.6365391 202.202287,34.0740609 C204.149896,33.8271913 206.065722,34.1339304 208.053243,35.0083217 C208.221765,35.0822348 208.412461,35.0859304 208.581722,35.0171913 C208.751722,34.9484522 208.884026,34.8131913 208.949809,34.6424522 L210.382983,30.9298 C210.51233,30.5949739 210.354157,30.2135826 210.023765,30.0613217" id="Fill-19" fill="#777789" sketch:type="MSShapeGroup"></path>
                <path d="M171.264948,45.2081 C171.352904,52.7087957 165.812383,58.8125348 158.650209,59.1052304 C155.261296,59.2486217 152.176904,58.1088826 149.992035,55.9395348 C147.907687,53.8707087 146.747991,50.9577957 146.725078,47.7374043 C146.683687,41.8539261 150.073339,36.7465348 155.361078,34.7257522 C156.7876,34.1795348 158.284339,33.9031 159.809904,33.9031 C163.974904,33.9031 167.772557,35.9844913 169.720165,39.3349696 C170.71947,41.0527087 171.239078,43.0284043 171.264948,45.2081 M159.624383,28.9597957 C159.514991,28.967187 159.377513,28.9708826 159.189774,28.9767957 C158.727817,28.9908391 158.095122,29.0100565 157.479426,29.1083609 C147.899557,30.6272739 141.395948,38.1723174 141.295426,47.8844913 C141.228904,54.3740565 144.651817,59.9803609 150.228557,62.5148391 C152.659557,63.6198391 155.243557,64.1801 157.910339,64.1801 L157.911078,64.1801 C165.059209,64.1801 171.684035,60.0483609 174.789122,53.6548826 C177.046426,49.0087087 177.406383,44.3122739 175.858643,39.694187 C173.573252,32.8727522 167.672035,28.9597957 159.624383,28.9597957" id="Fill-21" fill="#777789" sketch:type="MSShapeGroup"></path>
            </g>
        </g>
    </g>
</svg>