<svg xmlns="http://www.w3.org/2000/svg" xmlns:xlink="http://www.w3.org/1999/xlink" width="300" height="300" viewBox="0 0 300 300"><defs><style>.a,.b{fill-rule:evenodd;}.b{fill:url(#a);}.c{fill:rgba(238,238,238,0.2);}</style><linearGradient id="a" y1="1" x2="1" gradientUnits="objectBoundingBox"><stop offset="0" stop-color="#f05"/><stop offset="1" stop-color="#f94cff"/></linearGradient></defs><g transform="translate(-972 -674)"><g transform="translate(1035.169 808)"><path class="a" d="M160,26a10,10,0,1,1,10-10A10,10,0,0,1,160,26Zm0-3a7,7,0,1,0-7-7A7,7,0,0,0,160,23Z"/><rect width="3" height="20" rx="0.5" transform="translate(139 6)"/><path class="a" d="M121,26h-6.5a.5.5,0,0,1-.5-.5h0V6.5a.5.5,0,0,1,.5-.5H121a10,10,0,0,1,0,20Zm0-3a7,7,0,0,0,0-14h-4V23Z"/><path class="a" d="M89.5,6h2a.5.5,0,0,1,.5.5V18a5,5,0,0,0,10,0V6.5h0a.5.5,0,0,1,.5-.5h2a.5.5,0,0,1,.5.5V18a8,8,0,0,1-16,0V6.5h0A.5.5,0,0,1,89.5,6Z"/><path class="a" d="M67.5,6h14a.5.5,0,0,1,.5.5v2h0a.5.5,0,0,1-.5.5H76V25.5h0a.5.5,0,0,1-.5.5h-2a.5.5,0,0,1-.5-.5V9H67.5a.5.5,0,0,1-.5-.5v-2h0A.5.5,0,0,1,67.5,6Z"/><path d="M59.8,8.053q-.452-.37-.727-.557A8.447,8.447,0,0,0,54.247,6c-3.63,0-6.45,2.169-6.45,5.5,0,3.112,1.63,4.327,5.761,5.83l.28.1a12.184,12.184,0,0,1,2.855,1.3,1.992,1.992,0,0,1,1,1.767c0,1.182-1.572,2.5-3.45,2.5a7.872,7.872,0,0,1-4.164-1.505q-.216-.14-.587-.406h0a.5.5,0,0,0-.69.105l-1.2,1.594h0a.5.5,0,0,0,.1.7l.011.009q.617.439.963.656A10.541,10.541,0,0,0,54.247,26c3.429,0,6.45-2.532,6.45-5.5a4.969,4.969,0,0,0-2.3-4.233,14.385,14.385,0,0,0-3.536-1.654l-.281-.1c-2.99-1.088-3.786-1.681-3.786-3.01,0-1.477,1.33-2.5,3.45-2.5a5.428,5.428,0,0,1,2.972.866,7.26,7.26,0,0,1,.606.447h0a.5.5,0,0,0,.682-.054l1.348-1.482h0a.5.5,0,0,0-.034-.706Z"/><path class="b" d="M3.838,25.617,25.617,3.838a.6.6,0,0,1,.849,0l1.7,1.7a.6.6,0,0,1,0,.849L6.383,28.162a.6.6,0,0,1-.849,0l-1.7-1.7A.6.6,0,0,1,3.838,25.617Z"/></g><rect class="c" width="300" height="300" transform="translate(972 674)"/></g></svg>